<?xml version="1.0" encoding="UTF-8" standalone="no"?>
<!-- Created with Inkscape (http://www.inkscape.org/) -->

<svg
   xmlns:dc="http://purl.org/dc/elements/1.1/"
   xmlns:cc="http://creativecommons.org/ns#"
   xmlns:rdf="http://www.w3.org/1999/02/22-rdf-syntax-ns#"
   xmlns:svg="http://www.w3.org/2000/svg"
   xmlns="http://www.w3.org/2000/svg"
   xmlns:sodipodi="http://sodipodi.sourceforge.net/DTD/sodipodi-0.dtd"
   xmlns:inkscape="http://www.inkscape.org/namespaces/inkscape"
   width="210mm"
   height="130mm"
   viewBox="0 0 210 130"
   version="1.1"
   id="svg8"
   inkscape:version="0.92.4 (5da689c313, 2019-01-14)"
   sodipodi:docname="gdal-async-logo.svg">
  <title
     id="title440">node-gdal-async</title>
  <defs
     id="defs2">
    <clipPath
       id="a">
      <path
         id="path72"
         d="m 239.03,226.605 -42.13,24.317 c -1.578,0.91 -2.546,2.59 -2.546,4.406 v 48.668 c 0,1.817 0.968,3.496 2.546,4.406 l 42.133,24.336 c 1.575,0.907 3.517,0.907 5.09,0 l 42.126,-24.336 c 1.57,-0.91 2.54,-2.59 2.54,-4.406 v -48.668 c 0,-1.816 -0.97,-3.496 -2.55,-4.406 l -42.12,-24.317 c -0.79,-0.453 -1.67,-0.68 -2.55,-0.68 -0.88,0 -1.76,0.227 -2.55,0.68"
         inkscape:connector-curvature="0" />
    </clipPath>
    <linearGradient
       gradientUnits="userSpaceOnUse"
       gradientTransform="matrix(-38.064915,77.652126,-77.652126,-38.064915,258.72325,244.62943)"
       x2="1.251"
       x1="-0.34799999"
       id="b">
      <stop
         id="stop75"
         stop-color="#3E863D"
         offset=".3" />
      <stop
         id="stop77"
         stop-color="#55934F"
         offset=".5" />
      <stop
         id="stop79"
         stop-color="#5AAD45"
         offset=".8" />
    </linearGradient>
    <clipPath
       id="c">
      <path
         id="path82"
         d="m 195.398,307.086 c 0.403,0.523 0.907,0.976 1.5,1.316 l 36.14,20.875 6.02,3.46 c 0.9,0.52 1.926,0.74 2.934,0.665 0.336,-0.027 0.672,-0.09 1,-0.183 l 44.434,-81.36 c -0.34,-0.37 -0.738,-0.68 -1.184,-0.94 l -27.586,-15.93 -14.582,-8.39 c -0.414,-0.24 -0.863,-0.41 -1.32,-0.53 z m 0,0"
         inkscape:connector-curvature="0" />
    </clipPath>
    <linearGradient
       gradientUnits="userSpaceOnUse"
       gradientTransform="matrix(106.8057,-78.916731,78.916731,106.8057,235.18824,285.39477)"
       x2="0.58200002"
       x1="-0.456"
       id="d">
      <stop
         id="stop85"
         stop-color="#3E863D"
         offset=".57" />
      <stop
         id="stop87"
         stop-color="#619857"
         offset=".72" />
      <stop
         id="stop89"
         stop-color="#76AC64"
         offset="1" />
    </linearGradient>
    <clipPath
       id="e">
      <path
         id="path92"
         d="m 241.066,225.953 c -0.707,0.07 -1.398,0.29 -2.035,0.652 l -42.01,24.247 45.3,82.51 c 0.63,-0.09 1.25,-0.3 1.81,-0.624 l 42.13,-24.336 c 1.3,-0.754 2.19,-2.03 2.46,-3.476 l -46.18,-78.89 c -0.34,-0.067 -0.68,-0.102 -1.03,-0.102 -0.14,0 -0.28,0.007 -0.42,0.02"
         inkscape:connector-curvature="0" />
    </clipPath>
    <linearGradient
       gradientUnits="userSpaceOnUse"
       gradientTransform="matrix(97.417,0,0,97.417,192.862,279.652)"
       x2="0.98400003"
       x1="0.043000001"
       id="f">
      <stop
         id="stop95"
         stop-color="#6BBF47"
         offset=".16" />
      <stop
         id="stop97"
         stop-color="#79B461"
         offset=".38" />
      <stop
         id="stop99"
         stop-color="#75AC64"
         offset=".47" />
      <stop
         id="stop101"
         stop-color="#659E5A"
         offset=".7" />
      <stop
         id="stop103"
         stop-color="#3E863D"
         offset=".9" />
    </linearGradient>
  </defs>
  <sodipodi:namedview
     id="base"
     pagecolor="#ffffff"
     bordercolor="#666666"
     borderopacity="1.0"
     inkscape:pageopacity="0.0"
     inkscape:pageshadow="2"
     inkscape:zoom="1.4"
     inkscape:cx="281.72987"
     inkscape:cy="245.71429"
     inkscape:document-units="mm"
     inkscape:current-layer="layer1"
     showgrid="false"
     inkscape:window-width="2560"
     inkscape:window-height="1361"
     inkscape:window-x="-9"
     inkscape:window-y="-9"
     inkscape:window-maximized="1"
     units="mm" />
  <metadata
     id="metadata5">
    <rdf:RDF>
      <cc:Work
         rdf:about="">
        <dc:format>image/svg+xml</dc:format>
        <dc:type
           rdf:resource="http://purl.org/dc/dcmitype/StillImage" />
        <dc:title>node-gdal-async</dc:title>
      </cc:Work>
    </rdf:RDF>
  </metadata>
  <g
     inkscape:label="Layer 1"
     inkscape:groupmode="layer"
     id="layer1"
     transform="translate(0,-167)">
    <g
       id="g487"
       transform="matrix(1.3463493,0,0,1.3577685,-34.381002,72.115239)">
      <path
         id="path108"
         d="m 102.67013,165.6282 c -0.51506,0 -1.02659,-0.13511 -1.47814,-0.39511 L 96.487,162.44756 c -0.702732,-0.39299 -0.359832,-0.53198 -0.128058,-0.61207 0.936976,-0.32808 1.127123,-0.40216 2.127246,-0.97013 0.105128,-0.06 0.242711,-0.0388 0.350308,0.0247 l 3.614554,2.14489 c 0.13053,0.0705 0.31574,0.0705 0.43674,0 l 14.09344,-8.13504 c 0.13053,-0.0741 0.2152,-0.22578 0.2152,-0.381 v -16.26303 c 0,-0.16228 -0.0847,-0.30691 -0.21802,-0.38805 l -14.0878,-8.12799 c -0.13053,-0.0776 -0.30339,-0.0776 -0.43392,0 l -14.084975,8.12799 c -0.136524,0.0776 -0.223308,0.2293 -0.223308,0.38452 v 16.26303 c 0,0.15522 0.08467,0.30339 0.218722,0.37747 l 3.859382,2.22955 c 2.095496,1.04775 3.376077,-0.18697 3.376077,-1.42874 V 139.6423 c 0,-0.22931 0.179916,-0.4057 0.409222,-0.4057 h 1.785052 c 0.222249,0 0.405694,0.17639 0.405694,0.4057 v 16.05841 c 0,2.794 -1.523998,4.39913 -4.173354,4.39913 -0.814915,0 -1.456969,0 -3.249077,-0.88194 l -3.697105,-2.13078 c -0.913692,-0.52916 -1.478136,-1.51694 -1.478136,-2.57174 v -16.26303 c 0,-1.05833 0.564444,-2.0461 1.478136,-2.56821 l 14.10756,-8.13857 c 0.89252,-0.50447 2.07786,-0.50447 2.96333,0 l 14.08991,8.14209 c 0.91017,0.52564 1.47814,1.50989 1.47814,2.56822 v 16.26303 c 0,1.0548 -0.56797,2.03905 -1.47814,2.56821 l -14.08991,8.13857 c -0.45156,0.26106 -0.96309,0.39511 -1.4852,0.39511"
         inkscape:connector-curvature="0"
         style="fill:#689f63;stroke-width:0.35277712" />
      <path
         id="path110"
         d="m 107.02339,154.42188 c -6.16654,0 -7.459467,-2.83068 -7.459467,-5.20487 0,-0.22578 0.182033,-0.40569 0.408163,-0.40569 h 1.820334 c 0.20108,0 0.37041,0.1464 0.40216,0.34501 0.27517,1.8549 1.09361,2.79047 4.82246,2.79047 2.97039,0 4.23333,-0.67098 4.23333,-2.24613 0,-0.90664 -0.35983,-1.58044 -4.97416,-2.032 -3.85938,-0.381 -6.24415,-1.23119 -6.24415,-4.31799 0,-2.84338 2.39888,-4.53672 6.41701,-4.53672 4.51202,0 6.74863,1.56634 7.03085,4.93183 0.0106,0.11642 -0.0318,0.2293 -0.10936,0.31397 -0.0776,0.0811 -0.18697,0.13053 -0.29986,0.13053 h -1.83091 c -0.1905,0 -0.35631,-0.13406 -0.39511,-0.3175 -0.44097,-1.95086 -1.50636,-2.57527 -4.40266,-2.57527 -3.24202,0 -3.6195,1.12888 -3.6195,1.97555 0,1.02658 0.4445,1.32644 4.81894,1.90499 4.3321,0.57503 6.38879,1.38642 6.38879,4.43089 0,3.06916 -2.56116,4.82951 -7.02732,4.82951 m 17.16614,-17.24727 h 0.47272 c 0.38806,0 0.46214,-0.27164 0.46214,-0.43039 0,-0.41627 -0.28575,-0.41627 -0.4445,-0.41627 h -0.48683 z m -0.57503,-1.3335 h 1.04775 c 0.35983,0 1.06539,0 1.06539,0.80433 0,0.56092 -0.35984,0.67734 -0.57503,0.74789 0.41981,0.0282 0.44803,0.30339 0.50447,0.69145 0.0282,0.24341 0.0741,0.66322 0.15875,0.80433 h -0.64558 c -0.0176,-0.14111 -0.11642,-0.91722 -0.11642,-0.95956 -0.0423,-0.17286 -0.1023,-0.25752 -0.3175,-0.25752 h -0.53269 v 1.2206 h -0.58914 z m -1.25941,1.51694 c 0,1.26295 1.01952,2.286 2.27188,2.286 1.26294,0 2.28247,-1.04422 2.28247,-2.286 0,-1.26647 -1.03364,-2.27188 -2.286,-2.27188 -1.23472,0 -2.27188,0.9913 -2.27188,2.26836 m 4.99532,0.0106 c 0,1.49577 -1.22413,2.71638 -2.71638,2.71638 -1.48166,0 -2.71638,-1.20649 -2.71638,-2.71638 0,-1.53811 1.26294,-2.71638 2.71638,-2.71638 1.46403,0 2.71286,1.1818 2.71286,2.71638"
         inkscape:connector-curvature="0"
         style="fill:#689f63;stroke-width:0.35277712" />
      <path
         id="path112"
         d="m 59.027714,101.99426 c 0,-0.64911 -0.342194,-1.2453 -0.902404,-1.56809 L 43.183082,91.82899 C 42.930846,91.680824 42.648271,91.603213 42.361816,91.592629 H 42.2073 c -0.286455,0.01058 -0.569029,0.08819 -0.825498,0.236361 l -14.941523,8.59718 c -0.556682,0.32455 -0.903815,0.92075 -0.903815,1.56986 l 0.03281,23.15629 c 0,0.32103 0.165806,0.62089 0.448027,0.77964 0.275166,0.16933 0.620888,0.16933 0.896054,0 l 8.882928,-5.08705 c 0.560916,-0.33373 0.90311,-0.92357 0.90311,-1.56633 v -10.81791 c 0,-0.64558 0.342194,-1.24178 0.901345,-1.5628 l 3.781771,-2.17805 c 0.280811,-0.16228 0.589138,-0.24271 0.90311,-0.24271 0.309032,0 0.624415,0.0797 0.897465,0.24236 l 3.780007,2.17734 c 0.559504,0.32102 0.903109,0.91722 0.903109,1.5628 v 10.8172 c 0,0.64206 0.34678,1.23472 0.904873,1.56634 l 8.877284,5.08351 c 0.278694,0.16581 0.625474,0.16581 0.903109,0 0.273756,-0.15875 0.447322,-0.45861 0.447322,-0.77963 z m 70.508856,12.05651 c 0,0.16122 -0.0857,0.31045 -0.22577,0.39018 l -5.13221,2.95838 c -0.13934,0.0801 -0.3115,0.0801 -0.45049,0 l -5.13291,-2.95838 c -0.14111,-0.0801 -0.22578,-0.22931 -0.22578,-0.39018 v -5.92524 c 0,-0.16157 0.0847,-0.31044 0.22225,-0.39158 l 5.12938,-2.96333 c 0.14111,-0.0811 0.31397,-0.0811 0.45508,0 l 5.13291,2.96333 c 0.14111,0.0811 0.22578,0.23001 0.22578,0.39158 z m 1.38642,-43.886176 c -0.28011,-0.155928 -0.62089,-0.151694 -0.89747,0.0095 -0.27516,0.162277 -0.4452,0.45861 -0.4452,0.779637 V 93.88427 c 0,0.225777 -0.11995,0.433916 -0.31539,0.546804 -0.19402,0.112889 -0.43568,0.112889 -0.63147,0 l -3.74296,-2.155821 c -0.55739,-0.322438 -1.24389,-0.322438 -1.8034,0 l -14.94717,8.626457 c -0.55844,0.32103 -0.9031,0.91722 -0.9031,1.55928 v 17.25785 c 0,0.64559 0.34466,1.23825 0.9031,1.56281 l 14.94717,8.63245 c 0.55809,0.32103 1.2453,0.32103 1.80516,0 l 14.94717,-8.63598 c 0.55739,-0.32456 0.90311,-0.91722 0.90311,-1.5628 V 76.704729 c 0,-0.654754 -0.35631,-1.256945 -0.92781,-1.576914 z m 49.77438,37.805006 c 0.55527,-0.32244 0.89711,-0.91792 0.89711,-1.55998 v -4.18252 c 0,-0.64347 -0.34219,-1.23719 -0.89852,-1.56104 l -14.85192,-8.621876 c -0.56091,-0.324555 -1.24883,-0.324555 -1.80974,0 l -14.94364,8.625396 c -0.56092,0.32456 -0.90311,0.91723 -0.90311,1.56281 v 17.2508 c 0,0.64911 0.34925,1.24883 0.91016,1.56986 l 14.84839,8.46312 c 0.54681,0.31397 1.21708,0.3175 1.77094,0.0106 l 8.98171,-4.99179 c 0.28222,-0.15875 0.46214,-0.45861 0.46214,-0.78317 0,-0.32455 -0.17286,-0.62794 -0.45509,-0.78669 l -15.03536,-8.62893 c -0.28222,-0.15875 -0.45508,-0.45861 -0.45508,-0.77964 v -5.4116 c 0,-0.32314 0.16933,-0.62089 0.45155,-0.78175 l 4.67783,-2.69875 c 0.27869,-0.16227 0.62089,-0.16227 0.89958,0 l 4.68135,2.69875 c 0.2787,0.15875 0.45156,0.45861 0.45156,0.77964 v 4.25449 c 0,0.32103 0.17286,0.62089 0.45155,0.78316 0.2787,0.15875 0.62442,0.15875 0.90311,-0.004 z m 0,0"
         inkscape:connector-curvature="0"
         style="fill:#333333;fill-rule:evenodd;stroke-width:0.35277712" />
      <path
         id="path114"
         d="m 164.72045,107.16245 c 0.10583,-0.0624 0.23847,-0.0624 0.34572,0 l 2.86808,1.65452 c 0.10724,0.0621 0.17286,0.17639 0.17286,0.29986 v 3.31258 c 0,0.12347 -0.0656,0.23777 -0.17286,0.29986 l -2.86808,1.65453 c -0.10725,0.0624 -0.23989,0.0624 -0.34572,0 l -2.86632,-1.65453 c -0.10936,-0.0621 -0.17639,-0.17639 -0.17639,-0.29986 v -3.31258 c 0,-0.12347 0.0635,-0.23777 0.17287,-0.29986 z m 0,0"
         inkscape:connector-curvature="0"
         style="fill:#689f63;fill-rule:evenodd;stroke-width:0.35277712" />
      <g
         transform="matrix(0.08005884,0,0,0.07770531,56.12028,78.673414)"
         id="g428"
         style="overflow:visible">
        <g
           id="Layer_5">
</g>
        <g
           id="Layer_6">
	<ellipse
   style="fill:#71c9f1"
   cx="346.517"
   cy="406.61801"
   rx="224.981"
   ry="225.439"
   id="ellipse310" />

	<path
   style="fill:#359946"
   inkscape:connector-curvature="0"
   d="m 501.978,457.39 c -7.509,-0.713 -16.236,0.223 -23.391,-2.537 -8.306,-3.204 -4.547,-10.3 -9.413,-16.078 -3.78,-4.487 -11.079,-5.93 -16.188,-8.536 -6.96,-3.549 -13.698,-7.636 -21.302,-9.71 -7.862,-2.143 -17.271,0.333 -24.15,4.177 -2.157,1.205 -7.1,5.316 -9.661,3.283 -2.681,-2.127 2.007,-10.977 -4.186,-8.791 -5.667,2 -8.333,10.666 -13,10 -5.563,-0.797 -10.045,-2.484 -15.7,-2.025 -4.935,0.4 -9.862,1.645 -13.318,-2.984 -3.655,-4.897 -0.294,-11.042 -2.59,-16.06 -3.943,-8.621 -14.11,-0.312 -20.288,-4.171 4.428,-3.34 8.556,-9.208 8.812,-14.902 0.24,-5.296 -3.365,-9.285 -8.459,-5.876 -2.794,1.87 -2.717,5.298 -4.786,7.61 -3.579,3.998 -22.032,5.008 -23.392,-2.131 -1.274,-6.693 -3.8,-19.088 -0.613,-25.461 2.46,-4.92 5.587,-10.722 11.14,-12.62 5.662,-1.937 13.416,0.266 19.726,-1.347 5.419,-1.385 11.471,-3.187 16.794,-0.577 5.431,2.663 6.361,8.669 8.675,13.876 1.333,3 6.333,7 4.998,-1.009 -1.043,-6.257 -6.906,-13.907 -3.835,-20.018 2.753,-5.469 9.375,-7.259 12.905,-11.957 3.462,-4.605 0.965,-10.548 3.581,-15.406 2.607,-4.842 8.754,-6.369 11.152,-11.427 1.169,-2.466 6.492,-16.992 11.812,-12.393 2.256,1.95 0.915,4.433 4.449,1.971 1.443,-1.005 6.797,-4.77 3.601,-6.54 -2.938,-1.626 -8,0.977 -9.614,-3.112 -2.782,-7.047 10.244,-10.657 11.95,-15.776 1,-3 0.999,-4 -6.667,-7 -5.263,-2.06 -10.834,-13.366 -16.136,-13.021 -2.959,0.193 -2.355,3.443 -4.236,3.981 -4.458,1.275 -6.904,-5.511 -9.975,-7.852 -2.22,-1.691 -10.525,-5.292 -13.255,-3.211 -6.569,5.007 11.048,30.222 -1.377,34.982 -3.051,1.169 -9.481,-11.799 -13.748,-13.541 -6.876,-2.808 -18.555,-1.837 -18.288,-12.673 0.259,-10.54 13.503,-7.468 16.641,-14.656 2.782,-6.372 -7.008,-16.185 -12.755,-14.704 -0.313,1.593 0.765,5.348 -0.234,6.547 -3.135,3.749 -22.685,0.086 -26.976,-1.256 -7.398,-2.314 -15.241,-3.933 -22.041,-7.793 -5.896,-3.347 -9.099,-9.623 -16.62,-6.803 -5.333,2 -8.581,4.748 -13.247,6.749 -4.513,1.935 -9.57,2.161 -14.054,4.299 -4.543,2.167 -1.849,10.273 -5.445,14.193 -4.375,4.767 -11.717,4.507 -17.641,5.074 -1.479,0.142 -11.102,0.365 -11.364,1.94 -0.377,2.465 24.337,-0.224 26.059,-0.717 3.962,-1.134 6.864,-4.043 10.679,-5.509 4.563,-1.753 10.064,-2.544 12.391,2.452 2.72,5.866 0.49,11.602 -1.584,17.235 -2.341,6.359 -1.505,7.897 0.193,14.208 1.063,3.951 0.289,6.358 -1.373,10.062 -4.133,9.214 -15.476,25.558 -11.28,36.347 3.218,8.275 10.404,15.299 16.03,21.95 3.825,4.522 3.212,8.959 5.922,14.176 2.562,4.931 6.369,9.652 9.468,14.285 4.448,6.649 5.391,15.301 10.732,21.386 4.689,5.344 18.895,14.808 26.259,15.046 2.229,0.071 4.227,-2.034 6.38,-1.789 6.695,0.77 10.746,7.212 16.557,9.839 5.312,2.401 12.593,0.383 17.068,4.591 5.602,5.266 6.109,13.242 14.608,15.555 4.236,1.151 9.679,-0.793 13.622,1.16 11.421,5.661 3.7,18.943 0.003,26.387 -3.837,7.723 -7.906,16.742 -6.265,25.596 1.417,7.646 7.29,12.614 11.329,18.841 3.502,5.398 4.498,12.508 10.363,16.07 4.594,2.789 13.605,2.979 16.249,8.182 2.943,5.793 -3.647,14.68 -5.068,20.259 -1.802,7.076 -3.995,14.092 -6.196,21.056 -2.197,6.953 -5.879,11.785 -8.91,18.124 -2.504,5.236 -9.558,25.709 1.111,24.759 15.161,-1.355 20.782,-21.278 33.737,-26.138 2.666,-1 25,-17.666 29,-21 4,-3.332 14,-7.332 15.333,-11.332 1.333,-4 6.333,-7 8,-14.001 1.917,-8.052 14.624,-10.232 20.124,-15.672 7.525,-7.445 11.274,-18.378 15.207,-27.991 3.35,-8.187 10.577,-14.424 12.632,-23.294 2.588,-11.177 -6.133,-13.849 -16.671,-14.851 z"
   id="path312" />

	<path
   style="fill:#359946"
   inkscape:connector-curvature="0"
   d="m 381.378,381.335 c -1.71,-0.46 -3.672,-0.411 -5.432,-0.978 -2.658,-0.856 -4.965,-2.606 -7.574,-3.604 -2.751,-1.053 -5.575,-1.834 -8.521,-2.048 -1.604,-0.117 -3.228,-0.049 -4.813,0.229 -1.477,0.259 -3.017,0.697 -4.387,1.315 -0.578,0.261 -1.629,0.807 -1.259,1.641 0.655,1.472 4.881,0.516 6.075,0.517 4.407,0.004 9.582,-0.109 13.225,2.781 0.947,0.752 1.812,1.611 2.563,2.56 0.613,0.771 1.158,1.651 2.077,2.095 0.902,0.436 1.856,-0.061 2.698,-0.418 1.194,-0.506 2.403,-0.981 3.641,-1.37 1.015,-0.318 2.294,-0.438 3.014,-1.312 0.6,-0.728 -0.414,-1.167 -1.307,-1.408 z"
   id="path314" />

	<path
   style="fill:#359946"
   inkscape:connector-curvature="0"
   d="m 401.687,385.114 c -2.328,-0.596 -4.999,2.082 -8.334,0.75 -3.021,-1.209 -3.718,-2.699 -5.646,-3.062 -1.204,-0.227 -3.259,0.418 -1.688,1.812 2.719,2.412 4.67,4.588 8,6.084 2.071,0.93 7.254,0.213 9.25,-0.918 3.418,-1.934 2.001,-3.75 -1.582,-4.666 z"
   id="path316" />

	<path
   style="fill:#359946"
   inkscape:connector-curvature="0"
   d="m 417.418,273.486 c -0.908,-0.569 -4.107,-7.395 -6.731,-1.956 -3.417,7.083 9.064,8.755 10.345,7.231 1.281,-1.524 -3.261,-5.054 -3.614,-5.275 z"
   id="path318" />

	<path
   style="fill:#359946"
   inkscape:connector-curvature="0"
   d="m 360.747,219.091 c -1.993,-0.813 -19.86,-8.049 -20.452,-2.425 -0.387,3.669 6.869,4.285 9.104,4.869 3.51,0.918 9.196,3.659 10.155,7.568 0.661,2.702 -3.062,6.094 2.133,6.094 2.333,0 7.333,1.333 7.333,1.333 0,0 2.331,1.332 4.33,1 5.634,-0.933 -3.676,-9.816 -5.043,-11.32 -2.56,-2.815 -3.88,-5.617 -7.56,-7.119 z"
   id="path320" />

	<path
   style="fill:#359946"
   inkscape:connector-curvature="0"
   d="m 309.146,212.979 c -1.678,-0.62 -5.983,-1.21 -6.354,-1.005 -3.8,2.109 -3.879,3.164 0.234,5.171 3.782,1.846 7.568,3.359 11.677,4.333 2.281,0.541 6.878,0.554 4.704,-3.035 -1.836,-3.028 -7.161,-4.319 -10.261,-5.464 z"
   id="path322" />

	<path
   style="fill:#359946"
   inkscape:connector-curvature="0"
   d="m 348.823,199.695 c -1.944,-1.491 -4.894,0.116 -6.754,0.966 -4.292,1.959 -8.718,0.723 -13.063,2.073 -1.127,0.35 -2.913,1.235 -3.002,2.619 -0.118,1.815 2.478,2.298 3.74,2.786 1.955,0.756 3.552,2.407 5.803,1.95 1.804,-0.366 3.223,-1.749 5.056,-2.105 2.112,-0.41 4.178,-0.647 5.794,-2.204 1.193,-1.149 4.435,-4.535 2.426,-6.085 z"
   id="path324" />

	<path
   style="fill:#359946"
   inkscape:connector-curvature="0"
   d="m 409.354,226.53 c -0.277,-1.943 0.044,-3.902 -0.289,-5.833 -1.829,-10.604 -14.968,-16.208 -23.786,-19.79 -3.56,-1.446 -7.52,-2.477 -11.37,-2.703 -5.047,-0.295 -11.717,-0.849 -16.163,2.083 -1.566,1.033 -2.45,2.509 -2.168,4.596 0.491,3.619 7.262,2.939 9.767,3.551 7.157,1.748 13.058,5.072 18.678,9.865 8.422,7.184 15.936,13.401 26.332,17.563 1.666,0.667 4.991,1.393 4.261,-1.401 -1.031,-3.936 -4.595,-3.264 -5.262,-7.931 z"
   id="path326" />

	<path
   style="fill:#359946"
   inkscape:connector-curvature="0"
   d="m 526.982,282.734 c 0.352,6.433 1.142,12.889 3.198,19.021 0.987,2.942 2.672,5.6 3.723,8.518 2.473,6.87 1.067,14.3 2.423,21.351 1.335,6.941 5.996,12.545 8.022,19.24 1.876,6.197 0.695,13.385 3.337,19.332 1.507,3.391 4.328,5.977 6.224,9.145 2.399,4.01 5.111,14.822 10.22,16.139 3.615,0.932 3.283,-7.537 3.784,-9.68 0.519,-2.219 1.267,-4.58 1.886,-6.961 -4.898,-39.934 -20.21,-76.639 -43.142,-107.295 -0.017,0.349 0.138,7.751 0.325,11.19 z"
   id="path328" />

	<path
   style="fill:#359946"
   inkscape:connector-curvature="0"
   d="m 476.633,224.922 c 0.477,2.124 1.054,4.656 -0.107,5.572 -2.11,1.665 -5.297,-1.39 -6.854,-2.635 -1.262,-1.009 -3.767,-3.708 -5.544,-2.832 -3.024,1.491 7.355,8.955 8.257,9.812 1.441,1.37 2.495,3.188 4.04,4.431 3.075,2.472 3.656,-0.448 5.861,-1.96 3.364,-2.308 6.416,1.998 8.007,4.324 2.456,3.59 4.026,7.599 6.747,11.036 3.116,3.936 6.173,7.852 8.763,12.208 2.714,4.562 5.375,9.192 8.843,13.237 2.25,2.625 6.559,4.244 7.52,3.403 1.647,-1.44 -0.844,-4.196 -1.373,-5.637 -1.469,-4 -4.137,-7.383 -6.099,-11.132 -1.967,-3.76 -4.444,-12.495 -4.486,-12.773 -10.307,-10.95 -21.691,-20.868 -33.99,-29.577 -0.015,0.604 0.188,1.518 0.415,2.523 z"
   id="path330" />

	<path
   style="fill:#359946"
   inkscape:connector-curvature="0"
   d="m 419.521,197.116 c 4.331,3.715 9.838,5.95 15.165,8.081 3.333,1.333 4.333,3 8.333,5 4.945,2.473 9.567,5.014 14.826,6.81 1.517,0.518 5.319,2.592 6.841,1.523 0.674,-0.474 0.79,-1.88 0.596,-3.397 -15.574,-9.72 -32.418,-17.584 -50.229,-23.287 0.157,0.317 2.928,3.95 4.468,5.27 z"
   id="path332" />

	<path
   style="fill:#cccccc"
   inkscape:connector-curvature="0"
   d="m 56.772,483.438 h 65.061 V 589.903 C 94.52,602.114 57.77,605.364 30.77,584.864 7.581,567.256 -5.479,522.768 2.21,481.368 c 7.689,-41.4 31.643,-63.137 56.78,-70.381 25.137,-7.246 53.529,0.877 61.512,6.357 l -10.055,47.908 c -11.178,-6.139 -20.737,-9.535 -32.974,-7.246 -29.954,5.607 -24.806,69.16 -17.152,82.807 6.198,11.051 11.09,10.201 11.09,10.201 l 0.148,-20.848 -14.787,-0.148 z"
   id="path334" />

	<path
   style="fill:#cccccc"
   inkscape:connector-curvature="0"
   d="m 225.77,420.364 c -22.75,-15.25 -65.25,-14.25 -89.5,-6.25 l 0.25,182 c 23.75,3.75 65.75,6.5 88.75,-10.25 24.713,-17.998 33.25,-48.25 33,-84.5 -0.257,-37.25 -9.75,-65.75 -32.5,-81 z m -21.5,83.25 c -0.5,44 -15,47.75 -15,47.75 v -96 c 0,0 16,3.25 15,48.25 z"
   id="path336" />

	<polygon
   style="fill:#cccccc"
   points="323.77,559.614 331.02,597.864 383.27,597.614 346.52,409.614 291.02,409.364 250.27,597.864 302.27,597.864 310.02,559.614 "
   id="polygon338" />

	<polygon
   style="fill:#cccccc"
   points="442.52,550.114 442.52,409.364 389.52,409.364 389.52,597.614 485.52,597.614 485.52,550.114 "
   id="polygon340" />

	<g
   id="g350">
		<path
   inkscape:connector-curvature="0"
   d="m 112.02,583.364 c -7.25,3 -22.75,6 -35,6 -19.25,0 -33.75,-5.5 -45,-16.75 -14.5,-14 -22.25,-39 -21.75,-68 0.75,-61.25 35.75,-86.75 71.5,-86.75 12.75,0 22.25,2.5 27.5,5 l -5.75,28.25 c -4.75,-2.25 -11,-3.75 -19.25,-3.75 -22.25,0 -40,15.25 -40,59.25 0,40.5 15.75,55 31,55 3,0 5.25,-0.25 6.5,-0.75 v -40.75 h -15 v -26.75 h 45.25 z"
   id="path342" />

		<path
   inkscape:connector-curvature="0"
   d="m 146.516,421.864 c 8.25,-2 20.25,-3.25 33.25,-3.25 21.25,0 36,5 46.75,15 14.5,13 22,35.25 22,68 0,34 -8.75,58.25 -23.5,71.25 -11.25,11 -28,16.25 -51.5,16.25 -10.25,0 -20.5,-1 -27,-1.75 z m 32.75,140 c 1.5,0.5 4,0.5 5.75,0.5 15.75,0 29.5,-15.5 29.5,-62 0,-34.5 -9,-55.5 -28.75,-55.5 -2.25,0 -4.5,0 -6.5,0.75 z"
   id="path344" />

		<path
   inkscape:connector-curvature="0"
   d="m 302.018,549.364 -7.5,38.5 h -31.75 l 36.5,-168.5 h 39.25 l 32.75,168.5 h -31.75 l -7.25,-38.5 z m 27.25,-25.5 -5.5,-35.25 c -1.75,-10.25 -4,-27 -5.5,-38.25 h -0.75 c -1.75,11.25 -4.25,28.75 -6,38.5 l -6.25,35 z"
   id="path346" />

		<path
   inkscape:connector-curvature="0"
   d="m 399.766,419.364 h 32.75 v 140.75 h 43.25 v 27.75 h -76 z"
   id="path348" />

	</g>

</g>
        <g
           id="Layer_3">
	<path
   style="fill:#ed1e3a"
   inkscape:connector-curvature="0"
   d="m 182.65,173.129 -2.333,6.184 186.476,68.695 c 0.404,-2.107 1.5,-4.08 2.162,-6.247 z"
   id="path353" />

	<path
   style="fill:#ed1e3a"
   inkscape:connector-curvature="0"
   d="m 180.528,179.824 -33.894,195.825 c 2.202,1.482 4.432,2.82 6.716,4.102 l 34.414,-198.825 z"
   id="path355" />

	<path
   style="fill:#ed1e3a"
   inkscape:connector-curvature="0"
   d="m 244.787,288.181 c -66.626,41.209 -91.718,80.856 -96.071,88.376 1.7,1.018 3.417,1.962 5.158,2.872 10.307,-16.118 37.901,-52.546 94.204,-86.861 51.214,-31.214 96.002,-40.895 117.844,-43.891 0.354,-1.78 1.219,-3.4 2.071,-5.071 -14.297,1.719 -67.518,10.131 -123.206,44.575 z"
   id="path357" />

	<polygon
   style="fill:#666667"
   points="263.86,51.352 183.091,103.005 168.93,51.652 249.699,0 "
   id="polygon359" />

	<path
   inkscape:connector-curvature="0"
   d="m 175.983,114.397 c 0,0 -12.522,3.461 -23.303,9.845 -10.781,6.384 -19.823,15.693 -19.823,15.693 L 98.65,82.435 c 0,0 6.653,-12.348 17.642,-18.854 10.565,-6.257 25.482,-6.683 25.482,-6.683 z"
   id="path361" />

	<path
   style="fill:#666667"
   inkscape:connector-curvature="0"
   d="m 152.493,136.525 c 19.72,-12.891 41.243,-20.098 49.737,-16.902 -5.473,-2.507 -27.143,-10.826 -50.188,2.244 -23.858,13.531 -26.183,34.557 -26.165,42.379 1.076,-6.775 11.099,-17.577 26.616,-27.721 z"
   id="path363" />

	<path
   style="fill:#989898"
   inkscape:connector-curvature="0"
   d="m 205.773,125.483 c 0.139,-0.985 0.084,-1.885 -0.177,-2.681 -0.111,-0.342 -0.26,-0.665 -0.448,-0.967 -0.125,-0.201 -0.267,-0.394 -0.427,-0.578 -0.318,-0.367 -0.707,-0.697 -1.167,-0.988 -1.379,-0.871 -3.304,-1.323 -5.658,-1.393 -0.392,-0.012 -0.796,-0.012 -1.212,-0.003 -0.831,0.018 -1.708,0.08 -2.626,0.18 -0.459,0.051 -0.929,0.112 -1.408,0.182 -0.24,0.035 -0.481,0.073 -0.727,0.114 -0.488,0.081 -0.987,0.171 -1.494,0.271 -0.254,0.051 -0.51,0.102 -0.769,0.157 -0.516,0.109 -1.041,0.229 -1.574,0.358 -10.13,2.447 -23.218,8.3 -35.594,16.39 -12.051,7.876 -20.788,16.152 -24.596,22.63 -0.205,0.349 -0.397,0.694 -0.573,1.034 -0.177,0.339 -0.339,0.673 -0.486,1.001 -0.146,0.328 -0.278,0.65 -0.396,0.965 -0.41,1.104 -0.634,2.131 -0.66,3.066 -0.008,0.268 10e-4,0.527 0.026,0.78 0.147,1.511 0.884,2.74 2.263,3.611 7.357,4.647 30.218,-2.63 51.062,-16.256 0.651,-0.426 1.293,-0.853 1.924,-1.28 14.533,-9.838 23.808,-20.107 24.717,-26.593 z"
   id="path365" />

	<rect
   x="141.008"
   y="160.14"
   transform="matrix(0.7021,0.7121,-0.7121,0.7021,164.3516,-70.1016)"
   width="49.895"
   height="2.4549999"
   id="rect367" />

	
		<rect
   x="155.701"
   y="153.297"
   transform="matrix(-0.2491,-0.9685,0.9685,-0.2491,75.9908,367.9678)"
   width="49.894001"
   height="2.454"
   id="rect369" />

	<path
   inkscape:connector-curvature="0"
   d="m 182.736,172.197 -22.197,-40.319 c -0.891,0.273 -1.691,0.455 -2.214,1.07 l 22.261,40.433 z"
   id="path371" />

	<circle
   cx="184.314"
   cy="176.851"
   r="6.6620002"
   id="circle373" />

	<polygon
   style="fill:#666667"
   points="110.624,151.075 26.927,204.696 13.282,152.997 96.979,99.375 "
   id="polygon375" />

	<path
   inkscape:connector-curvature="0"
   d="m 97.479,128.201 2.529,3.574 23.545,-15.261 c -0.268,-0.568 -2.182,-3.293 -2.52,-3.79 z"
   id="path377" />

	<path
   inkscape:connector-curvature="0"
   d="m 157.986,89.501 2.529,3.574 23.546,-15.261 c -0.269,-0.569 -2.182,-3.294 -2.521,-3.791 z"
   id="path379" />

</g>
      </g>
    </g>
  </g>
</svg>
